ffmpeg started on 2025-05-12 at 15:46:21
Report written to "D:\Convert\FFMetrics\reports\psnr_report-6.txt"
Log level: 32
Command line:
ffmpeg -hide_banner -nostdin -i "G:\\\xc0\xed\xe8\xec\xe5\\\xce\xed\xe3\xee\xe8\xed\xe3\xe8\\!_35_\xcb\xe5\xf2\xee_2024\\DreamCast\\\xcb\xfe\xe1\xee\xe2\xfc \xed\xe5\xe4\xe5\xeb\xe8\xec\xe0 \xec\xe5\xe6\xe4\xf3 \xe1\xeb\xe8\xe7\xed\xe5\xf6\xe0\xec\xe8\\[DC] Koi wa Futago de Warikirenai - 07_Telegram_HEVC.mkv" -i "G:\\\xc0\xed\xe8\xec\xe5\\\xce\xed\xe3\xee\xe8\xed\xe3\xe8\\!_35_\xcb\xe5\xf2\xee_2024\\DreamCast\\\xcb\xfe\xe1\xee\xe2\xfc \xed\xe5\xe4\xe5\xeb\xe8\xec\xe0 \xec\xe5\xe6\xe4\xf3 \xe1\xeb\xe8\xe7\xed\xe5\xf6\xe0\xec\xe8\\[DC] Koi wa Futago de Warikirenai - 07_Telegram.mp4" -lavfi "[0:v]settb=AVTB,setpts=PTS-STARTPTS,format=pix_fmts=yuv420p10,fps=24000/1001,scale=1920:1080:flags=bicubic[main];[1:v]settb=AVTB,setpts=PTS-STARTPTS,format=pix_fmts=yuv420p,fps=24000/1001,scale=1920:1080:flags=bicubic[ref];[main][ref]psnr=eof_action=endall:stats_file='D\\:/Convert/FFMetrics/logs/psnr_logfile-6.txt'" -f null -
Input #0, matroska,webm, from 'G:\Аниме\Онгоинги\!_35_Лето_2024\DreamCast\Любовь неделима между близнецами\[DC] Koi wa Futago de Warikirenai - 07_Telegram_HEVC.mkv':
  Metadata:
    COMPATIBLE_BRANDS: isomiso2avc1mp41
    MAJOR_BRAND     : isom
    MINOR_VERSION   : 512
    ENCODER         : Lavf61.7.100
  Duration: 00:23:46.77, start: -0.021000, bitrate: 862 kb/s
  Stream #0:0: Video: hevc (Main 10), yuv420p10le(tv, bt709, progressive), 1920x1080 [SAR 1:1 DAR 16:9], 23.98 fps, 23.98 tbr, 1k tbn (default)
      Metadata:
        HANDLER_NAME    : VideoHandler
        VENDOR_ID       : [0][0][0][0]
        ENCODER         : Lavc61.19.100 libx265
        BPS             : 665646
        DURATION        : 00:23:46.591708333
        NUMBER_OF_FRAMES: 34204
        NUMBER_OF_BYTES : 118700647
        _STATISTICS_WRITING_APP: mkvpropedit v66.0.0 ('Josie') 64-bit
        _STATISTICS_WRITING_DATE_UTC: 2025-05-07 15:38:53
        _STATISTICS_TAGS: BPS DURATION NUMBER_OF_FRAMES NUMBER_OF_BYTES
  Stream #0:1: Audio: aac (LC), 48000 Hz, stereo, fltp (default)
      Metadata:
        HANDLER_NAME    : SoundHandler
        VENDOR_ID       : [0][0][0][0]
        ENCODER         : Lavc61.19.100 aac
        BPS             : 193173
        DURATION        : 00:23:46.773000000
        NUMBER_OF_FRAMES: 66881
        NUMBER_OF_BYTES : 34451805
        _STATISTICS_WRITING_APP: mkvpropedit v66.0.0 ('Josie') 64-bit
        _STATISTICS_WRITING_DATE_UTC: 2025-05-07 15:38:53
        _STATISTICS_TAGS: BPS DURATION NUMBER_OF_FRAMES NUMBER_OF_BYTES
Input #1, mov,mp4,m4a,3gp,3g2,mj2, from 'G:\Аниме\Онгоинги\!_35_Лето_2024\DreamCast\Любовь неделима между близнецами\[DC] Koi wa Futago de Warikirenai - 07_Telegram.mp4':
  Metadata:
    major_brand     : isom
    minor_version   : 512
    compatible_brands: isomiso2avc1mp41
    encoder         : Lavf60.16.100
  Duration: 00:23:46.72, start: 0.000000, bitrate: 3830 kb/s
  Stream #1:0[0x1](und): Video: h264 (High) (avc1 / 0x31637661), yuv420p(tv, bt709, progressive), 1920x1080 [SAR 1:1 DAR 16:9], 3682 kb/s, 23.98 fps, 23.98 tbr, 24k tbn (default)
      Metadata:
        handler_name    : VideoHandler
        vendor_id       : [0][0][0][0]
        encoder         : Lavc60.31.102 h264_qsv
  Stream #1:1[0x2](und): Audio: aac (HE-AACv2) (mp4a / 0x6134706D), 48000 Hz, stereo, fltp, 144 kb/s (default)
      Metadata:
        handler_name    : SoundHandler
        vendor_id       : [0][0][0][0]
Stream mapping:
  Stream #0:0 (hevc) -> settb:default
  Stream #1:0 (h264) -> settb:default
  psnr:default -> Stream #0:0 (wrapped_avframe)
  Stream #0:1 -> #0:1 (aac (native) -> pcm_s16le (native))
Output #0, null, to 'pipe:':
  Metadata:
    COMPATIBLE_BRANDS: isomiso2avc1mp41
    MAJOR_BRAND     : isom
    MINOR_VERSION   : 512
    encoder         : Lavf61.7.100
  Stream #0:0: Video: wrapped_avframe, yuv420p10le(tv, bt709, progressive), 1920x1080 [SAR 1:1 DAR 16:9], q=2-31, 200 kb/s, 23.98 fps, 23.98 tbn
      Metadata:
        encoder         : Lavc61.19.100 wrapped_avframe
  Stream #0:1: Audio: pcm_s16le, 48000 Hz, stereo, s16, 1536 kb/s (default)
      Metadata:
        HANDLER_NAME    : SoundHandler
        VENDOR_ID       : [0][0][0][0]
        _STATISTICS_TAGS: BPS DURATION NUMBER_OF_FRAMES NUMBER_OF_BYTES
        BPS             : 193173
        DURATION        : 00:23:46.773000000
        NUMBER_OF_FRAMES: 66881
        NUMBER_OF_BYTES : 34451805
        _STATISTICS_WRITING_APP: mkvpropedit v66.0.0 ('Josie') 64-bit
        _STATISTICS_WRITING_DATE_UTC: 2025-05-07 15:38:53
        encoder         : Lavc61.19.100 pcm_s16le
frame=  174 fps=0.0 q=-0.0 size=N/A time=00:00:07.25 bitrate=N/A speed=14.3x    frame=  448 fps=435 q=-0.0 size=N/A time=00:00:18.68 bitrate=N/A speed=18.1x    frame=  703 fps=457 q=-0.0 size=N/A time=00:00:29.32 bitrate=N/A speed=  19x    frame=  972 fps=471 q=-0.0 size=N/A time=00:00:40.54 bitrate=N/A speed=19.6x    frame= 1217 fps=473 q=-0.0 size=N/A time=00:00:50.75 bitrate=N/A speed=19.7x    frame= 1415 fps=457 q=-0.0 size=N/A time=00:00:59.01 bitrate=N/A speed=19.1x    frame= 1627 fps=450 q=-0.0 size=N/A time=00:01:07.85 bitrate=N/A speed=18.8x    frame= 1869 fps=451 q=-0.0 size=N/A time=00:01:17.95 bitrate=N/A speed=18.8x    frame= 2052 fps=442 q=-0.0 size=N/A time=00:01:25.58 bitrate=N/A speed=18.4x    frame= 2263 fps=438 q=-0.0 size=N/A time=00:01:34.38 bitrate=N/A speed=18.2x    frame= 2458 fps=433 q=-0.0 size=N/A time=00:01:42.51 bitrate=N/A speed=18.1x    frame= 2665 fps=430 q=-0.0 size=N/A time=00:01:51.15 bitrate=N/A speed=17.9x    frame= 2870 fps=428 q=-0.0 size=N/A time=00:01:59.70 bitrate=N/A speed=17.8x    frame= 3083 fps=426 q=-0.0 size=N/A time=00:02:08.58 bitrate=N/A speed=17.8x    frame= 3333 fps=431 q=-0.0 size=N/A time=00:02:19.01 bitrate=N/A speed=  18x    frame= 3584 fps=434 q=-0.0 size=N/A time=00:02:29.48 bitrate=N/A speed=18.1x    frame= 3838 fps=438 q=-0.0 size=N/A time=00:02:40.07 bitrate=N/A speed=18.3x    frame= 4104 fps=442 q=-0.0 size=N/A time=00:02:51.17 bitrate=N/A speed=18.4x    frame= 4367 fps=445 q=-0.0 size=N/A time=00:03:02.14 bitrate=N/A speed=18.6x    frame= 4616 fps=447 q=-0.0 size=N/A time=00:03:12.52 bitrate=N/A speed=18.7x    frame= 4866 fps=449 q=-0.0 size=N/A time=00:03:22.95 bitrate=N/A speed=18.7x    frame= 5127 fps=451 q=-0.0 size=N/A time=00:03:33.83 bitrate=N/A speed=18.8x    frame= 5391 fps=454 q=-0.0 size=N/A time=00:03:44.84 bitrate=N/A speed=18.9x    frame= 5639 fps=455 q=-0.0 size=N/A time=00:03:55.19 bitrate=N/A speed=  19x    frame= 5906 fps=458 q=-0.0 size=N/A time=00:04:06.32 bitrate=N/A speed=19.1x    frame= 6174 fps=460 q=-0.0 size=N/A time=00:04:17.50 bitrate=N/A speed=19.2x    frame= 6443 fps=462 q=-0.0 size=N/A time=00:04:28.72 bitrate=N/A speed=19.3x    frame= 6702 fps=464 q=-0.0 size=N/A time=00:04:39.52 bitrate=N/A speed=19.4x    frame= 6982 fps=466 q=-0.0 size=N/A time=00:04:51.20 bitrate=N/A speed=19.5x    frame= 7236 fps=468 q=-0.0 size=N/A time=00:05:01.80 bitrate=N/A speed=19.5x    frame= 7512 fps=470 q=-0.0 size=N/A time=00:05:13.31 bitrate=N/A speed=19.6x    frame= 7767 fps=471 q=-0.0 size=N/A time=00:05:23.94 bitrate=N/A speed=19.6x    frame= 8009 fps=470 q=-0.0 size=N/A time=00:05:34.04 bitrate=N/A speed=19.6x    frame= 8254 fps=471 q=-0.0 size=N/A time=00:05:44.26 bitrate=N/A speed=19.6x    frame= 8501 fps=471 q=-0.0 size=N/A time=00:05:54.56 bitrate=N/A speed=19.6x    frame= 8740 fps=471 q=-0.0 size=N/A time=00:06:04.53 bitrate=N/A speed=19.6x    frame= 9008 fps=472 q=-0.0 size=N/A time=00:06:15.70 bitrate=N/A speed=19.7x    frame= 9255 fps=472 q=-0.0 size=N/A time=00:06:26.01 bitrate=N/A speed=19.7x    frame= 9508 fps=472 q=-0.0 size=N/A time=00:06:36.56 bitrate=N/A speed=19.7x    frame= 9767 fps=473 q=-0.0 size=N/A time=00:06:47.36 bitrate=N/A speed=19.7x    frame=10021 fps=473 q=-0.0 size=N/A time=00:06:57.95 bitrate=N/A speed=19.7x    frame=10272 fps=474 q=-0.0 size=N/A time=00:07:08.42 bitrate=N/A speed=19.8x    frame=10516 fps=474 q=-0.0 size=N/A time=00:07:18.60 bitrate=N/A speed=19.8x    frame=10766 fps=474 q=-0.0 size=N/A time=00:07:29.03 bitrate=N/A speed=19.8x    frame=11014 fps=474 q=-0.0 size=N/A time=00:07:39.37 bitrate=N/A speed=19.8x    frame=11258 fps=474 q=-0.0 size=N/A time=00:07:49.55 bitrate=N/A speed=19.8x    frame=11521 fps=475 q=-0.0 size=N/A time=00:08:00.52 bitrate=N/A speed=19.8x    frame=11751 fps=474 q=-0.0 size=N/A time=00:08:10.11 bitrate=N/A speed=19.8x    frame=12006 fps=475 q=-0.0 size=N/A time=00:08:20.75 bitrate=N/A speed=19.8x    frame=12283 fps=476 q=-0.0 size=N/A time=00:08:32.30 bitrate=N/A speed=19.9x    frame=12538 fps=476 q=-0.0 size=N/A time=00:08:42.93 bitrate=N/A speed=19.9x    frame=12819 fps=478 q=-0.0 size=N/A time=00:08:54.65 bitrate=N/A speed=19.9x    frame=13087 fps=478 q=-0.0 size=N/A time=00:09:05.83 bitrate=N/A speed=19.9x    frame=13354 fps=479 q=-0.0 size=N/A time=00:09:16.97 bitrate=N/A speed=  20x    frame=13615 fps=480 q=-0.0 size=N/A time=00:09:27.85 bitrate=N/A speed=  20x    frame=13879 fps=480 q=-0.0 size=N/A time=00:09:38.86 bitrate=N/A speed=  20x    frame=14154 fps=481 q=-0.0 size=N/A time=00:09:50.33 bitrate=N/A speed=20.1x    frame=14409 fps=481 q=-0.0 size=N/A time=00:10:00.97 bitrate=N/A speed=20.1x    frame=14664 fps=482 q=-0.0 size=N/A time=00:10:11.61 bitrate=N/A speed=20.1x    frame=14930 fps=482 q=-0.0 size=N/A time=00:10:22.70 bitrate=N/A speed=20.1x    frame=15191 fps=482 q=-0.0 size=N/A time=00:10:33.59 bitrate=N/A speed=20.1x    frame=15456 fps=483 q=-0.0 size=N/A time=00:10:44.64 bitrate=N/A speed=20.1x    frame=15720 fps=483 q=-0.0 size=N/A time=00:10:55.65 bitrate=N/A speed=20.2x    frame=15971 fps=484 q=-0.0 size=N/A time=00:11:06.12 bitrate=N/A speed=20.2x    frame=16192 fps=483 q=-0.0 size=N/A time=00:11:15.34 bitrate=N/A speed=20.1x    frame=16412 fps=482 q=-0.0 size=N/A time=00:11:24.51 bitrate=N/A speed=20.1x    frame=16657 fps=482 q=-0.0 size=N/A time=00:11:34.73 bitrate=N/A speed=20.1x    frame=16903 fps=482 q=-0.0 size=N/A time=00:11:44.99 bitrate=N/A speed=20.1x    frame=17120 fps=481 q=-0.0 size=N/A time=00:11:54.04 bitrate=N/A speed=20.1x    frame=17354 fps=481 q=-0.0 size=N/A time=00:12:03.80 bitrate=N/A speed=  20x    frame=17607 fps=481 q=-0.0 size=N/A time=00:12:14.35 bitrate=N/A speed=  20x    frame=17846 fps=480 q=-0.0 size=N/A time=00:12:24.32 bitrate=N/A speed=  20x    frame=18089 fps=480 q=-0.0 size=N/A time=00:12:34.46 bitrate=N/A speed=  20x    frame=18340 fps=480 q=-0.0 size=N/A time=00:12:44.93 bitrate=N/A speed=  20x    frame=18555 fps=479 q=-0.0 size=N/A time=00:12:53.89 bitrate=N/A speed=  20x    frame=18815 fps=480 q=-0.0 size=N/A time=00:13:04.74 bitrate=N/A speed=  20x    frame=19075 fps=480 q=-0.0 size=N/A time=00:13:15.58 bitrate=N/A speed=  20x    frame=19341 fps=481 q=-0.0 size=N/A time=00:13:26.68 bitrate=N/A speed=  20x    frame=19587 fps=481 q=-0.0 size=N/A time=00:13:36.94 bitrate=N/A speed=  20x    frame=19856 fps=481 q=-0.0 size=N/A time=00:13:48.20 bitrate=N/A speed=20.1x    frame=20130 fps=482 q=-0.0 size=N/A time=00:13:59.58 bitrate=N/A speed=20.1x    frame=20395 fps=482 q=-0.0 size=N/A time=00:14:10.64 bitrate=N/A speed=20.1x    frame=20662 fps=482 q=-0.0 size=N/A time=00:14:21.77 bitrate=N/A speed=20.1x    frame=20920 fps=483 q=-0.0 size=N/A time=00:14:32.53 bitrate=N/A speed=20.1x    frame=21191 fps=483 q=-0.0 size=N/A time=00:14:43.84 bitrate=N/A speed=20.2x    frame=21428 fps=483 q=-0.0 size=N/A time=00:14:53.72 bitrate=N/A speed=20.1x    frame=21688 fps=483 q=-0.0 size=N/A time=00:15:04.57 bitrate=N/A speed=20.2x    frame=21939 fps=483 q=-0.0 size=N/A time=00:15:15.03 bitrate=N/A speed=20.2x    frame=22199 fps=483 q=-0.0 size=N/A time=00:15:25.88 bitrate=N/A speed=20.2x    frame=22447 fps=483 q=-0.0 size=N/A time=00:15:36.26 bitrate=N/A speed=20.2x    frame=22710 fps=484 q=-0.0 size=N/A time=00:15:47.19 bitrate=N/A speed=20.2x    frame=22935 fps=483 q=-0.0 size=N/A time=00:15:56.58 bitrate=N/A speed=20.2x    frame=23204 fps=483 q=-0.0 size=N/A time=00:16:07.80 bitrate=N/A speed=20.2x    frame=23455 fps=484 q=-0.0 size=N/A time=00:16:18.26 bitrate=N/A speed=20.2x    frame=23731 fps=484 q=-0.0 size=N/A time=00:16:29.78 bitrate=N/A speed=20.2x    frame=24002 fps=484 q=-0.0 size=N/A time=00:16:41.08 bitrate=N/A speed=20.2x    frame=24261 fps=485 q=-0.0 size=N/A time=00:16:51.88 bitrate=N/A speed=20.2x    frame=24523 fps=485 q=-0.0 size=N/A time=00:17:02.81 bitrate=N/A speed=20.2x    frame=24771 fps=485 q=-0.0 size=N/A time=00:17:13.15 bitrate=N/A speed=20.2x    frame=25026 fps=485 q=-0.0 size=N/A time=00:17:23.79 bitrate=N/A speed=20.2x    frame=25279 fps=485 q=-0.0 size=N/A time=00:17:34.34 bitrate=N/A speed=20.2x    frame=25532 fps=485 q=-0.0 size=N/A time=00:17:44.89 bitrate=N/A speed=20.2x    frame=25774 fps=485 q=-0.0 size=N/A time=00:17:54.99 bitrate=N/A speed=20.2x    frame=26030 fps=485 q=-0.0 size=N/A time=00:18:05.66 bitrate=N/A speed=20.2x    frame=26263 fps=485 q=-0.0 size=N/A time=00:18:15.38 bitrate=N/A speed=20.2x    frame=26494 fps=484 q=-0.0 size=N/A time=00:18:25.02 bitrate=N/A speed=20.2x    frame=26738 fps=484 q=-0.0 size=N/A time=00:18:35.19 bitrate=N/A speed=20.2x    frame=26998 fps=484 q=-0.0 size=N/A time=00:18:46.04 bitrate=N/A speed=20.2x    frame=27260 fps=485 q=-0.0 size=N/A time=00:18:56.96 bitrate=N/A speed=20.2x    frame=27532 fps=485 q=-0.0 size=N/A time=00:19:08.31 bitrate=N/A speed=20.2x    frame=27790 fps=485 q=-0.0 size=N/A time=00:19:19.07 bitrate=N/A speed=20.2x    frame=28051 fps=485 q=-0.0 size=N/A time=00:19:29.96 bitrate=N/A speed=20.2x    frame=28307 fps=485 q=-0.0 size=N/A time=00:19:40.63 bitrate=N/A speed=20.2x    frame=28565 fps=486 q=-0.0 size=N/A time=00:19:51.39 bitrate=N/A speed=20.3x    frame=28828 fps=486 q=-0.0 size=N/A time=00:20:02.36 bitrate=N/A speed=20.3x    frame=29067 fps=486 q=-0.0 size=N/A time=00:20:12.33 bitrate=N/A speed=20.3x    frame=29333 fps=486 q=-0.0 size=N/A time=00:20:23.43 bitrate=N/A speed=20.3x    frame=29582 fps=486 q=-0.0 size=N/A time=00:20:33.81 bitrate=N/A speed=20.3x    frame=29835 fps=486 q=-0.0 size=N/A time=00:20:44.36 bitrate=N/A speed=20.3x    frame=30101 fps=486 q=-0.0 size=N/A time=00:20:55.46 bitrate=N/A speed=20.3x    frame=30341 fps=486 q=-0.0 size=N/A time=00:21:05.47 bitrate=N/A speed=20.3x    frame=30600 fps=486 q=-0.0 size=N/A time=00:21:16.27 bitrate=N/A speed=20.3x    frame=30847 fps=486 q=-0.0 size=N/A time=00:21:26.57 bitrate=N/A speed=20.3x    frame=31078 fps=486 q=-0.0 size=N/A time=00:21:36.21 bitrate=N/A speed=20.3x    frame=31312 fps=486 q=-0.0 size=N/A time=00:21:45.97 bitrate=N/A speed=20.3x    frame=31546 fps=485 q=-0.0 size=N/A time=00:21:55.73 bitrate=N/A speed=20.2x    frame=31752 fps=485 q=-0.0 size=N/A time=00:22:04.32 bitrate=N/A speed=20.2x    frame=31986 fps=484 q=-0.0 size=N/A time=00:22:14.08 bitrate=N/A speed=20.2x    frame=32225 fps=484 q=-0.0 size=N/A time=00:22:24.05 bitrate=N/A speed=20.2x    frame=32422 fps=483 q=-0.0 size=N/A time=00:22:32.26 bitrate=N/A speed=20.2x    frame=32667 fps=483 q=-0.0 size=N/A time=00:22:42.48 bitrate=N/A speed=20.2x    frame=32878 fps=483 q=-0.0 size=N/A time=00:22:51.28 bitrate=N/A speed=20.1x    frame=33088 fps=482 q=-0.0 size=N/A time=00:23:00.04 bitrate=N/A speed=20.1x    frame=33305 fps=482 q=-0.0 size=N/A time=00:23:09.09 bitrate=N/A speed=20.1x    frame=33506 fps=481 q=-0.0 size=N/A time=00:23:17.47 bitrate=N/A speed=20.1x    frame=33708 fps=480 q=-0.0 size=N/A time=00:23:25.90 bitrate=N/A speed=  20x    frame=33920 fps=480 q=-0.0 size=N/A time=00:23:34.74 bitrate=N/A speed=  20x    frame=34123 fps=479 q=-0.0 size=N/A time=00:23:43.21 bitrate=N/A speed=  20x    [Parsed_psnr_10 @ 000001f47c4ed1c0] PSNR y:48.853355 u:49.366127 v:48.944792 average:48.950114 min:42.393736 max:inf
[out#0/null @ 000001f474986e00] video:14697KiB audio:267524KiB subtitle:0KiB other streams:0KiB global headers:0KiB muxing overhead: unknown
frame=34204 fps=479 q=-0.0 Lsize=N/A time=00:23:46.59 bitrate=N/A speed=  20x    
